<?xml version="1.0" standalone="no"?>
<!DOCTYPE svg PUBLIC "-//W3C//DTD SVG 20010904//EN"
 "http://www.w3.org/TR/2001/REC-SVG-20010904/DTD/svg10.dtd">
<svg version="1.0" xmlns="http://www.w3.org/2000/svg"
 width="590.000000pt" height="590.000000pt" viewBox="0 0 590.000000 590.000000"
 preserveAspectRatio="xMidYMid meet">
<metadata>
Created by potrace 1.11, written by Peter Selinger 2001-2013
</metadata>
<g transform="translate(0.000000,590.000000) scale(0.100000,-0.100000)"
fill="#000000" stroke="none">
<path d="M2830 4948 c-155 -171 -406 -343 -660 -451 -163 -69 -431 -151 -570
-173 -257 -42 -434 -266 -417 -529 14 -212 122 -403 301 -530 l28 -20 -150 2
c-106 1 -155 -2 -167 -11 -16 -11 -17 -44 -18 -343 l0 -330 -573 0 c-437 0
-577 -3 -588 -12 -11 -10 -15 -39 -15 -135 0 -67 4 -129 9 -136 8 -13 94 -15
582 -17 315 -1 576 -2 581 -2 4 -1 7 -110 7 -243 l0 -243 -580 0 c-504 0 -582
-2 -590 -15 -5 -8 -9 -71 -7 -140 2 -115 4 -125 23 -135 14 -7 215 -10 586
-10 l566 0 -2 -279 c-1 -207 2 -283 11 -292 18 -18 3498 -17 3513 1 6 7 11
118 13 291 l2 279 573 1 c496 1 576 3 589 16 11 12 15 42 14 138 0 76 -4 127
-11 134 -8 8 -178 12 -573 13 -309 1 -569 2 -577 2 -13 1 -15 34 -15 242 l0
241 570 0 c314 1 578 5 587 9 15 8 17 27 17 138 0 95 -3 132 -13 140 -9 8
-187 12 -587 14 l-574 2 0 326 c0 261 -3 329 -14 343 -11 13 -34 16 -135 15
-66 0 -134 0 -151 1 -28 1 -29 1 -9 13 124 73 249 260 288 430 16 70 22 182
11 227 -3 14 -8 36 -11 49 -8 37 -53 122 -93 172 -43 55 -97 98 -167 133 -42
21 -240 76 -364 102 -52 10 -219 68 -325 112 -272 113 -467 242 -652 429 -45
46 -86 83 -91 83 -8 0 -21 -19 -27 -40 0 -3 -5 -16 -9 -29 -5 -13 -9 -48 -10
-78 -3 -73 -20 -72 -21 2 -2 64 -18 127 -38 143 -9 8 -27 -6 -67 -50z m125
-245 c7 -142 132 -334 281 -429 62 -40 172 -84 209 -84 44 0 27 -16 -30 -29
-114 -26 -201 -20 -325 19 -34 11 -64 20 -65 20 -8 0 19 -92 40 -136 46 -102
185 -204 326 -240 71 -18 191 -21 257 -6 23 5 42 8 42 5 0 -11 -85 -85 -124
-108 -50 -30 -118 -54 -157 -57 -28 -2 -28 -3 -12 -28 35 -54 107 -99 198
-126 67 -19 223 -22 268 -5 15 6 27 8 27 6 0 -3 25 6 56 20 31 14 58 25 59 25
1 0 5 -27 8 -60 9 -99 61 -169 163 -220 39 -19 30 -19 -1231 -19 l-1270 0 41
20 c100 49 160 133 165 232 2 29 7 46 13 43 120 -54 143 -60 231 -60 159 0
250 28 333 100 58 50 64 69 27 72 -71 6 -184 63 -242 122 -31 31 -45 58 -24
46 13 -9 156 -9 216 -1 180 24 315 98 380 209 22 38 59 155 52 163 -2 2 -42
-9 -88 -23 -102 -31 -212 -37 -289 -16 -71 20 -82 29 -31 30 74 1 215 83 308
179 109 112 164 220 169 333 2 55 2 55 11 47 3 -4 7 -24 8 -44z"/>
</g>
</svg>
