<svg xmlns="http://www.w3.org/2000/svg" viewBox="0 0 645.33 102.92"><defs><style>.cls-1{fill:#777;stroke:#777;stroke-miterlimit:1.5;stroke-width:1.65px;}.cls-2{fill:#659ec7;stroke:#659ec7;stroke-miterlimit:1.54;stroke-width:1.23px;}.cls-3{fill:#feca1e;}.cls-4{fill:#fee9a4;}.cls-5{fill:#fddd72;}.cls-6{fill:#fefefe;}.cls-7{fill:#be9716;}.cls-8{fill:#f0eff1;}.cls-9{fill:#fdcd2c;}.cls-10{fill:#fdd44c;}.cls-11{fill:#f3df9e;}.cls-12{fill:#f3e0a3;}</style></defs><g id="Layer_2" data-name="Layer 2"><g id="svg234595"><g id="slogan"><path id="path234603" class="cls-1" d="M203.56,75.47c1.22,0,2.22,0,3-.07l-.12.48a5,5,0,0,0-1.31.19,1.29,1.29,0,0,0-.68.56A4.89,4.89,0,0,0,204,78l-3.18,11.9a5.19,5.19,0,0,0-.2,1.15.8.8,0,0,0,.16.55.9.9,0,0,0,.5.27,6,6,0,0,0,1,.1l-.1.48c-.75-.05-1.74-.07-3-.07-1.41,0-2.45,0-3.12.07l.09-.48a4.92,4.92,0,0,0,1.3-.19,1.25,1.25,0,0,0,.68-.56,4.93,4.93,0,0,0,.5-1.32l3.48-12.93-10,15.59h-.53L190,76.73l-3.41,12.88a5.44,5.44,0,0,0-.21,1.2.91.91,0,0,0,.4.84,3.46,3.46,0,0,0,1.41.27l-.11.48c-.55-.05-1.36-.07-2.43-.07s-1.71,0-2.26.07l.13-.48a3.89,3.89,0,0,0,1.29-.24,1.55,1.55,0,0,0,.71-.68,6.31,6.31,0,0,0,.52-1.39L189.11,78a5.19,5.19,0,0,0,.2-1.15.8.8,0,0,0-.17-.55.89.89,0,0,0-.5-.26,4.86,4.86,0,0,0-.95-.11l.12-.48c.5,0,1.22.07,2.14.07s1.55,0,2.11-.07l1.31,14.23,9-14.16Z"/><path id="path234605" class="cls-1" d="M225.08,88.48l-.6,1.76a4.31,4.31,0,0,1-1.23,1.92,2.48,2.48,0,0,1-1.54.58,1.7,1.7,0,0,1-.79-.18,1.25,1.25,0,0,1-.53-.46,1.68,1.68,0,0,1-.2-.84,3.71,3.71,0,0,1,.08-.73q.09-.39.18-.72c.06-.24.1-.39.12-.46L221,87.6a13.23,13.23,0,0,1-2.34,3.92,3.52,3.52,0,0,1-2.49,1.22,2,2,0,0,1-1.69-.79,3.57,3.57,0,0,1-.57-2.12,11.11,11.11,0,0,1,1-4.35,13.57,13.57,0,0,1,2.68-4.08A4.83,4.83,0,0,1,221,79.73a1.3,1.3,0,0,1,1.05.47,2.14,2.14,0,0,1,.48,1.32l.38-1.46a8.12,8.12,0,0,0,2.21-.33l-3,10.6a4.27,4.27,0,0,0-.17.89q0,.6.54.6c.7,0,1.31-.82,1.84-2.45l.29-.89ZM216.86,92a2.49,2.49,0,0,0,1.6-1,13.13,13.13,0,0,0,1.82-2.74,19.76,19.76,0,0,0,1.49-3.66l.45-1.74c0-.25,0-.43,0-.53a2.87,2.87,0,0,0-.35-1.52,1.07,1.07,0,0,0-1-.57c-.68,0-1.41.54-2.18,1.6a14.48,14.48,0,0,0-1.94,3.92,14.33,14.33,0,0,0-.77,4.41,3.54,3.54,0,0,0,.21,1.43.67.67,0,0,0,.62.42Z"/><path id="path234607" class="cls-1" d="M245.39,79.73a2.18,2.18,0,0,1,1.83.85,4,4,0,0,1,.67,2.52,11.83,11.83,0,0,1-.87,4.22,10.61,10.61,0,0,1-2.46,3.85,5.16,5.16,0,0,1-3.7,1.57,2.06,2.06,0,0,1-2-1.39L238,94.5a2.35,2.35,0,0,0-.09.58.91.91,0,0,0,.52.89,3.4,3.4,0,0,0,1.51.27l-.15.5-.61,0c-1.08,0-1.94-.08-2.6-.08s-1.32,0-2.21.08l-.45,0,.14-.5a2.7,2.7,0,0,0,.94-.14,1.19,1.19,0,0,0,.56-.46,3.29,3.29,0,0,0,.38-.89l4.48-16a14,14,0,0,1-1.69,2.84,22.58,22.58,0,0,1-2.36,2.54l-.27-.3c.76-.74,1.39-1.4,1.89-2a14.66,14.66,0,0,0,1.5-2.1,23.51,23.51,0,0,0,1.51-3l.09-.35a7.55,7.55,0,0,0,2.18-.34l-2.51,8.78A13.79,13.79,0,0,1,243,81,3.23,3.23,0,0,1,245.39,79.73Zm-4.56,12.45a3.13,3.13,0,0,0,2.43-1.59,13.07,13.07,0,0,0,1.85-3.88,14.15,14.15,0,0,0,.71-4.13,3.22,3.22,0,0,0-.3-1.56.91.91,0,0,0-.83-.53c-.45,0-1,.37-1.58,1.1a15.58,15.58,0,0,0-1.81,2.94,30.89,30.89,0,0,0-1.6,4l-.62,2.19a2.65,2.65,0,0,0,.72,1.12A1.66,1.66,0,0,0,240.83,92.18Z"/><path id="path234609" class="cls-1" d="M259.51,92a2.78,2.78,0,0,0,2.86-.42,2.48,2.48,0,0,0,.67-1.83,3.94,3.94,0,0,0-.3-1.5,6.92,6.92,0,0,0-1-1.67l-.15-.2q-.47-.64-.75-1.08a5.24,5.24,0,0,1-.47-1,3.85,3.85,0,0,1-.19-1.19,3.19,3.19,0,0,1,.5-1.77,3.3,3.3,0,0,1,1.36-1.2,4.05,4.05,0,0,1,1.87-.43,4.2,4.2,0,0,1,2.09.47,1.67,1.67,0,0,1,.84,1.61,1.4,1.4,0,0,1-.12.55,1.19,1.19,0,0,1-.37.5,1,1,0,0,1-.62.2.91.91,0,0,1-.69-.29,1,1,0,0,1-.27-.72,2.55,2.55,0,0,1,.68-1.61,2.36,2.36,0,0,0-1.21-.28,2,2,0,0,0-1.5.61,2.31,2.31,0,0,0-.59,1.66,2.74,2.74,0,0,0,.11.79,4.54,4.54,0,0,0,.3.68q.19.31.6.9l.43.63a14.93,14.93,0,0,1,1.07,1.9,3.89,3.89,0,0,1,.35,1.63,3.48,3.48,0,0,1-.56,2A3.82,3.82,0,0,1,263,92.25a4.7,4.7,0,0,1-4.37-.1,2,2,0,0,1-.93-1.79,1.24,1.24,0,0,1,.24-.75.77.77,0,0,1,.7-.33.87.87,0,0,1,.8.43,2.11,2.11,0,0,1,.25,1.08A6.7,6.7,0,0,1,259.51,92Z"/><path id="path234611" class="cls-1" d="M279.63,91.07a3.65,3.65,0,0,1-.43,1.68A5.51,5.51,0,0,1,278,94.33a7.84,7.84,0,0,1-1.89,1.28l-.12-.33a7.15,7.15,0,0,0,1.81-1.51,3,3,0,0,0,.73-1.64,2,2,0,0,1-1.25.61.93.93,0,0,1-.67-.24.82.82,0,0,1-.23-.61,2,2,0,0,1,.31-1,2.82,2.82,0,0,1,.85-.87,1.9,1.9,0,0,1,1-.33.87.87,0,0,1,.79.41A1.74,1.74,0,0,1,279.63,91.07Z"/><path id="path234613" class="cls-1" d="M302,89.85a4.79,4.79,0,0,0-.2,1.16.83.83,0,0,0,.15.54.9.9,0,0,0,.5.27,6.3,6.3,0,0,0,1,.1l-.1.48c-.75-.05-1.76-.07-3-.07s-2.35,0-3.05.07l.13-.48a4.78,4.78,0,0,0,1.26-.19,1.3,1.3,0,0,0,.67-.56,5.53,5.53,0,0,0,.49-1.32L302.89,78a4.65,4.65,0,0,0,.2-1.15.8.8,0,0,0-.16-.55.89.89,0,0,0-.5-.26,4.86,4.86,0,0,0-.95-.11l.11-.48c.66,0,1.68.07,3.05.07s2.31,0,3.07-.07l-.12.48a5.16,5.16,0,0,0-1.31.19,1.32,1.32,0,0,0-.68.56,5.69,5.69,0,0,0-.48,1.32Z"/><path id="path234615" class="cls-1" d="M332.94,90.26c-.57,1.65-1.53,2.48-2.91,2.48a1.63,1.63,0,0,1-1.49-.66,1.56,1.56,0,0,1-.2-.82,6.92,6.92,0,0,1,.4-1.89L331,82.5a4.52,4.52,0,0,0,.24-1.26c0-.5-.17-.75-.53-.75-.61,0-1.29.48-2,1.45a20.32,20.32,0,0,0-2.22,4,58.35,58.35,0,0,0-2.17,6l0-.12-.17.6H322l3-9.9a4.23,4.23,0,0,0,.24-1.23c0-.52-.22-.78-.67-.78s-1.24.46-2,1.37a18.31,18.31,0,0,0-2.14,3.75,39,39,0,0,0-1.86,5.24l-.39,1.55h-2.09L319,82.09a3.74,3.74,0,0,0,.17-.87c0-.41-.17-.61-.5-.61a1.27,1.27,0,0,0-1,.57,7.2,7.2,0,0,0-.89,1.88l-.31.89H316l.61-1.75c.56-1.65,1.53-2.47,2.89-2.47a1.26,1.26,0,0,1,1.4,1.44,7.35,7.35,0,0,1-.35,1.91l-.77,3a25.25,25.25,0,0,1,1.84-3.75,6.75,6.75,0,0,1,1.77-2,3.32,3.32,0,0,1,1.95-.62c1.05,0,1.57.56,1.57,1.69a7.82,7.82,0,0,1-.32,1.93l-.85,3.17a29.46,29.46,0,0,1,1.9-4,7,7,0,0,1,1.79-2.14,3.35,3.35,0,0,1,2-.68,1.57,1.57,0,0,1,1.29.49,2,2,0,0,1,.4,1.3,6.06,6.06,0,0,1-.34,1.83l-2.34,7a3.43,3.43,0,0,0-.17.91.5.5,0,0,0,.56.57,1.23,1.23,0,0,0,.94-.53,6.66,6.66,0,0,0,.91-1.91l.32-.9h.44Z"/><path id="path234617" class="cls-1" d="M355.41,88.48l-.6,1.76a4.31,4.31,0,0,1-1.23,1.92,2.48,2.48,0,0,1-1.53.58,1.71,1.71,0,0,1-.8-.18,1.25,1.25,0,0,1-.53-.46,1.68,1.68,0,0,1-.2-.84,3.71,3.71,0,0,1,.08-.73q.09-.39.18-.72c.06-.24.1-.39.12-.46l.43-1.75A13,13,0,0,1,349,91.52a3.52,3.52,0,0,1-2.49,1.22,2,2,0,0,1-1.68-.79,3.5,3.5,0,0,1-.58-2.12,11.11,11.11,0,0,1,1-4.35A13.41,13.41,0,0,1,348,81.4a4.79,4.79,0,0,1,3.37-1.67,1.33,1.33,0,0,1,1.06.47,2.26,2.26,0,0,1,.48,1.32l.37-1.46a8.27,8.27,0,0,0,2.22-.33l-3,10.6a3.85,3.85,0,0,0-.18.89q0,.6.54.6c.7,0,1.32-.82,1.84-2.45l.29-.89ZM347.19,92a2.49,2.49,0,0,0,1.6-1,13.53,13.53,0,0,0,1.83-2.74,20.44,20.44,0,0,0,1.48-3.66l.45-1.74c0-.25,0-.43,0-.53a2.78,2.78,0,0,0-.35-1.52,1.07,1.07,0,0,0-1-.57c-.68,0-1.41.54-2.18,1.6a15.72,15.72,0,0,0-2.71,8.33,3.54,3.54,0,0,0,.21,1.43.67.67,0,0,0,.62.42Z"/><path id="path234619" class="cls-1" d="M377,77.51c.68,0,1,.28,1,.85a1.25,1.25,0,0,1-.19.66,1.56,1.56,0,0,1-.49.53,1.19,1.19,0,0,1-.66.2.64.64,0,0,1-.49-.19.66.66,0,0,1-.19-.51,1.31,1.31,0,0,1,.32-.86.2.2,0,0,0-.14,0,1.27,1.27,0,0,0-.59.23A4.42,4.42,0,0,0,374.26,80a2.35,2.35,0,0,1,1.79,2.46,4.27,4.27,0,0,1-.61,2.16,5.37,5.37,0,0,1-4.15,2.68l-.76.41a16.84,16.84,0,0,0-1.59,1,.93.93,0,0,0-.49.69q0,.45,1.44.81l1.74.46a9.87,9.87,0,0,1,1.49.5,2.52,2.52,0,0,1,.91.62,1.41,1.41,0,0,1,.32.94,3.22,3.22,0,0,1-.82,2,6.18,6.18,0,0,1-2.42,1.76,9.67,9.67,0,0,1-3.88.71,6,6,0,0,1-2.72-.48,1.4,1.4,0,0,1-.91-1.26q0-1.87,4.09-3.49a1.31,1.31,0,0,1-.92-1.25,1.88,1.88,0,0,1,.28-1,4.05,4.05,0,0,1,1.09-1,18,18,0,0,1,2.32-1.3,4.13,4.13,0,0,1-2.39-.7,2.23,2.23,0,0,1-.86-1.92,4.82,4.82,0,0,1,.56-2.15,4.91,4.91,0,0,1,1.78-2,5.34,5.34,0,0,1,3.07-.82,6.16,6.16,0,0,1,1.23.11,6.23,6.23,0,0,1,1.56-1.8A2.79,2.79,0,0,1,377,77.51Zm-6.24,9.34a2.43,2.43,0,0,0,1.95-.83,4.64,4.64,0,0,0,1-2,10.18,10.18,0,0,0,.27-2.31c0-1-.47-1.56-1.42-1.56a2.23,2.23,0,0,0-1.93,1,6.17,6.17,0,0,0-1,2.23,8.83,8.83,0,0,0-.28,1.88,1.66,1.66,0,0,0,.36,1.2A1.5,1.5,0,0,0,370.73,86.85ZM368.06,92c-1.63.88-2.45,1.86-2.45,3a1.52,1.52,0,0,0,.63,1.3,2.83,2.83,0,0,0,1.66.45,6.32,6.32,0,0,0,2.22-.42A5.18,5.18,0,0,0,372,95.11a2.14,2.14,0,0,0,.73-1.57.38.38,0,0,0-.23-.38,5.65,5.65,0,0,0-.9-.3l-.31-.08Z"/><path id="path234621" class="cls-1" d="M396,81.31a4.08,4.08,0,0,1-2.17,3.39,21.28,21.28,0,0,1-5,2.4,10.27,10.27,0,0,0-.27,2.32q0,2.31,1.65,2.31,2.06,0,3.7-2.4l.39.18A7.38,7.38,0,0,1,393,91.09a6.63,6.63,0,0,1-1.69,1.19,4.32,4.32,0,0,1-1.9.46,3.09,3.09,0,0,1-2.33-.87,3.52,3.52,0,0,1-.83-2.52,9.85,9.85,0,0,1,1.06-4.1,11.89,11.89,0,0,1,2.89-3.91,5.88,5.88,0,0,1,4-1.61,1.9,1.9,0,0,1,1.27.41A1.41,1.41,0,0,1,396,81.31Zm-2.31-1.13a2.67,2.67,0,0,0-1.72.91,9.35,9.35,0,0,0-1.78,2.39,13.37,13.37,0,0,0-1.26,3.16,11.58,11.58,0,0,0,3.27-1.55,4.62,4.62,0,0,0,1.38-1.67,4.8,4.8,0,0,0,.5-2.16,2.24,2.24,0,0,0-.1-.85A.31.31,0,0,0,393.65,80.18Z"/><path id="path234623" class="cls-1" d="M407,92a2.4,2.4,0,0,0,1.1.22,2.44,2.44,0,0,0,1.76-.64,2.47,2.47,0,0,0,.66-1.83,3.92,3.92,0,0,0-.29-1.5,7.66,7.66,0,0,0-1-1.67l-.15-.2q-.48-.64-.75-1.08a5.24,5.24,0,0,1-.47-1,3.58,3.58,0,0,1-.19-1.19,3.18,3.18,0,0,1,.49-1.77,3.36,3.36,0,0,1,1.36-1.2,4.58,4.58,0,0,1,4,0,1.66,1.66,0,0,1,.85,1.61,1.4,1.4,0,0,1-.12.55,1.22,1.22,0,0,1-.38.5,1,1,0,0,1-.62.2.94.94,0,0,1-.69-.29,1,1,0,0,1-.27-.72,2.61,2.61,0,0,1,.68-1.61,2.32,2.32,0,0,0-1.2-.28,2,2,0,0,0-1.5.61,2.26,2.26,0,0,0-.59,1.66,2.43,2.43,0,0,0,.11.79,3.13,3.13,0,0,0,.3.68q.18.31.6.9l.43.63a16.29,16.29,0,0,1,1.07,1.9,4.05,4.05,0,0,1,.35,1.63,3.56,3.56,0,0,1-.56,2,3.85,3.85,0,0,1-1.52,1.33,4.7,4.7,0,0,1-4.37-.1,2,2,0,0,1-.92-1.79,1.3,1.3,0,0,1,.23-.75.8.8,0,0,1,.71-.33.86.86,0,0,1,.79.43,2.11,2.11,0,0,1,.26,1.08A6.7,6.7,0,0,1,407,92Z"/><path id="path234625" class="cls-1" d="M427.13,91.07a3.76,3.76,0,0,1-.42,1.68,5.56,5.56,0,0,1-1.22,1.58,7.78,7.78,0,0,1-1.88,1.28l-.12-.33a6.92,6.92,0,0,0,1.8-1.51,3,3,0,0,0,.74-1.64,2,2,0,0,1-1.25.61.92.92,0,0,1-.67-.24.79.79,0,0,1-.24-.61,2,2,0,0,1,.32-1A2.9,2.9,0,0,1,425,90a2,2,0,0,1,1.05-.33.84.84,0,0,1,.78.41A1.74,1.74,0,0,1,427.13,91.07Z"/><path id="path234627" class="cls-1" d="M457.57,90.38a1.84,1.84,0,0,0,.4,1.15,1.22,1.22,0,0,0,.79.39l-.11.48c-.64-.05-1.51-.07-2.61-.07-1.29,0-2.25,0-2.88.07l.1-.48a4.61,4.61,0,0,0,1.27-.2,1.18,1.18,0,0,0,.63-.59,2.65,2.65,0,0,0,.16-1.23L455.1,86h-5.89L447.4,88.5a5,5,0,0,0-1.12,2.4q0,1,1.77,1l-.12.48c-.89-.05-1.81-.07-2.74-.07-.7,0-1.3,0-1.8.07l.12-.48a4.66,4.66,0,0,0,2.4-2.09l10.35-14.54h.35Zm-2.89-12.15-5.13,7.25h5.53Z"/><path id="path234629" class="cls-1" d="M479.34,79.73a1.39,1.39,0,0,1,1,.38,1.3,1.3,0,0,1,.39,1,1.7,1.7,0,0,1-.23.86,1.84,1.84,0,0,1-.63.64,1.6,1.6,0,0,1-.83.23,1,1,0,0,1-.69-.22.84.84,0,0,1-.26-.65,1.57,1.57,0,0,1,1.08-1.53.37.37,0,0,0-.27-.09q-.85,0-1.83,1.26a16.9,16.9,0,0,0-2,3.54,46.85,46.85,0,0,0-1.88,5.26l-.5,2h-2.09l2.87-10.31a3.44,3.44,0,0,0,.18-.93c0-.37-.17-.55-.51-.55a1.27,1.27,0,0,0-1,.57,6.89,6.89,0,0,0-.89,1.88L471,84h-.45l.61-1.75c.56-1.65,1.52-2.47,2.89-2.47a1.22,1.22,0,0,1,1.38,1.39,3.83,3.83,0,0,1-.08.81c-.05.28-.14.66-.26,1.15l-.77,3A27.28,27.28,0,0,1,476,82.38a6.81,6.81,0,0,1,1.58-2A2.81,2.81,0,0,1,479.34,79.73Z"/><path id="path234631" class="cls-1" d="M496.67,80.21a3.32,3.32,0,0,0-2.4,1.3,10,10,0,0,0-1.95,3.42,13.43,13.43,0,0,0-.75,4.49,2.84,2.84,0,0,0,.45,1.75,1.5,1.5,0,0,0,1.24.56q2,0,3.6-2.4l.48.18a7.43,7.43,0,0,1-1.25,1.58,6.57,6.57,0,0,1-1.68,1.19,4.32,4.32,0,0,1-1.9.46,3,3,0,0,1-2.32-.91,3.7,3.7,0,0,1-.85-2.62,11.16,11.16,0,0,1,.92-4.19,10.32,10.32,0,0,1,2.57-3.76,5.37,5.37,0,0,1,3.76-1.53,3.42,3.42,0,0,1,1.3.24,2.31,2.31,0,0,1,.95.72,1.73,1.73,0,0,1,.35,1.08,2.12,2.12,0,0,1-.21.91,1.89,1.89,0,0,1-.61.73,1.54,1.54,0,0,1-.89.28.9.9,0,0,1-1-.94,1.56,1.56,0,0,1,.53-1.17A2.39,2.39,0,0,1,498.3,81,1.84,1.84,0,0,0,496.67,80.21Z"/><path id="path234633" class="cls-1" d="M519.64,90.26c-.56,1.65-1.53,2.48-2.9,2.48-1.13,0-1.69-.5-1.69-1.48a6,6,0,0,1,.4-1.89l2.27-6.87a3.78,3.78,0,0,0,.26-1.19c0-.55-.26-.82-.78-.82a2.77,2.77,0,0,0-1.9,1.11,14,14,0,0,0-2,3.12,34.8,34.8,0,0,0-1.91,4.66l-.88,3h-2.09l4.75-16a2.42,2.42,0,0,0,.11-.66.74.74,0,0,0-.38-.7,2.67,2.67,0,0,0-1.27-.22l.14-.51a9.57,9.57,0,0,0,4.33-1l-3.48,11.89A19.29,19.29,0,0,1,514.31,82a6.39,6.39,0,0,1,1.76-1.74,3.59,3.59,0,0,1,1.92-.55c1.29,0,1.94.6,1.94,1.81a5.92,5.92,0,0,1-.36,1.81l-2.33,7a3.64,3.64,0,0,0-.17.91.5.5,0,0,0,.56.57,1.23,1.23,0,0,0,.93-.53,7.2,7.2,0,0,0,.92-1.91l.31-.9h.45Z"/><path id="path234635" class="cls-1" d="M542.14,88.48l-.6,1.76a4.31,4.31,0,0,1-1.23,1.92,2.48,2.48,0,0,1-1.53.58,1.71,1.71,0,0,1-.8-.18,1.25,1.25,0,0,1-.53-.46,1.68,1.68,0,0,1-.2-.84,3.1,3.1,0,0,1,.09-.73c0-.26.11-.5.17-.72l.12-.46.43-1.75a12.81,12.81,0,0,1-2.34,3.92,3.52,3.52,0,0,1-2.49,1.22,2,2,0,0,1-1.68-.79,3.5,3.5,0,0,1-.58-2.12,11.29,11.29,0,0,1,1-4.35,13.41,13.41,0,0,1,2.69-4.08,4.79,4.79,0,0,1,3.37-1.67,1.33,1.33,0,0,1,1.06.47,2.26,2.26,0,0,1,.48,1.32l.37-1.46a8.27,8.27,0,0,0,2.22-.33l-3,10.6a3.85,3.85,0,0,0-.18.89q0,.6.54.6c.7,0,1.32-.82,1.84-2.45l.29-.89ZM533.93,92a2.49,2.49,0,0,0,1.59-1,13.53,13.53,0,0,0,1.83-2.74,21.24,21.24,0,0,0,1.49-3.66l.44-1.74c0-.25,0-.43,0-.53a2.78,2.78,0,0,0-.35-1.52,1.06,1.06,0,0,0-1-.57c-.68,0-1.41.54-2.18,1.6a15.72,15.72,0,0,0-2.71,8.33,3.54,3.54,0,0,0,.21,1.43.67.67,0,0,0,.63.42Z"/><path id="path234637" class="cls-1" d="M562.61,81.31a4.08,4.08,0,0,1-2.17,3.39,21.28,21.28,0,0,1-5,2.4,10.27,10.27,0,0,0-.27,2.32q0,2.31,1.65,2.31,2.05,0,3.7-2.4l.39.18a7.38,7.38,0,0,1-1.24,1.58A6.63,6.63,0,0,1,558,92.28a4.32,4.32,0,0,1-1.9.46,3.09,3.09,0,0,1-2.33-.87,3.52,3.52,0,0,1-.83-2.52,9.85,9.85,0,0,1,1.06-4.1,11.89,11.89,0,0,1,2.89-3.91,5.88,5.88,0,0,1,4-1.61,1.9,1.9,0,0,1,1.27.41A1.41,1.41,0,0,1,562.61,81.31Zm-2.31-1.13a2.67,2.67,0,0,0-1.72.91,9.35,9.35,0,0,0-1.78,2.39,13.37,13.37,0,0,0-1.26,3.16,11.58,11.58,0,0,0,3.27-1.55,4.62,4.62,0,0,0,1.38-1.67,4.8,4.8,0,0,0,.5-2.16,2.24,2.24,0,0,0-.1-.85A.31.31,0,0,0,560.3,80.18Z"/><path id="path234639" class="cls-1" d="M574.69,90.36a2.94,2.94,0,0,0-.16.84c0,.43.19.64.57.64a1.15,1.15,0,0,0,.9-.55,7.3,7.3,0,0,0,.89-1.89l.32-.9h.45l-.6,1.76c-.57,1.65-1.53,2.48-2.88,2.48q-1.65,0-1.65-1.56a6.71,6.71,0,0,1,.33-1.81l3.91-13a2.71,2.71,0,0,0,.12-.67.73.73,0,0,0-.38-.69,2.55,2.55,0,0,0-1.25-.22l.16-.51a9.82,9.82,0,0,0,2.29-.26,9.32,9.32,0,0,0,2-.72Z"/><path id="path234641" class="cls-1" d="M588.7,89a11.18,11.18,0,0,1,.83-4A9.89,9.89,0,0,1,592,81.23a5.21,5.21,0,0,1,3.68-1.5,3.08,3.08,0,0,1,2.41,1,4,4,0,0,1,.88,2.81,11.42,11.42,0,0,1-.85,4.07,10,10,0,0,1-2.41,3.68,5.15,5.15,0,0,1-3.67,1.5,3.13,3.13,0,0,1-2.41-.95A4,4,0,0,1,588.7,89Zm6.79-8.75a3,3,0,0,0-2.33,1.56,12.56,12.56,0,0,0-1.74,3.9,16.56,16.56,0,0,0-.66,4.5c0,1.39.46,2.08,1.37,2.08a3,3,0,0,0,2.32-1.55,12.85,12.85,0,0,0,1.75-3.89,17.08,17.08,0,0,0,.65-4.52,2.87,2.87,0,0,0-.34-1.58A1.14,1.14,0,0,0,595.49,80.21Z"/><path id="path234643" class="cls-1" d="M620.29,77.51c.68,0,1,.28,1,.85a1.35,1.35,0,0,1-.19.66,1.66,1.66,0,0,1-.49.53,1.22,1.22,0,0,1-.66.2.64.64,0,0,1-.49-.19.66.66,0,0,1-.19-.51,1.31,1.31,0,0,1,.32-.86.2.2,0,0,0-.14,0,1.24,1.24,0,0,0-.59.23A4.42,4.42,0,0,0,617.58,80a2.36,2.36,0,0,1,1.79,2.46,4.27,4.27,0,0,1-.61,2.16,5.42,5.42,0,0,1-4.15,2.68l-.76.41a15.61,15.61,0,0,0-1.59,1,.93.93,0,0,0-.49.69q0,.45,1.44.81l1.74.46a9.87,9.87,0,0,1,1.49.5,2.39,2.39,0,0,1,.9.62,1.37,1.37,0,0,1,.33.94,3.22,3.22,0,0,1-.82,2,6.25,6.25,0,0,1-2.42,1.76,9.67,9.67,0,0,1-3.88.71,6,6,0,0,1-2.72-.48,1.41,1.41,0,0,1-.92-1.26c0-1.25,1.37-2.41,4.09-3.49a1.3,1.3,0,0,1-.91-1.25,1.79,1.79,0,0,1,.28-1,4.05,4.05,0,0,1,1.09-1,17.35,17.35,0,0,1,2.32-1.3,4.11,4.11,0,0,1-2.39-.7,2.24,2.24,0,0,1-.87-1.92,4.84,4.84,0,0,1,.57-2.15,4.91,4.91,0,0,1,1.78-2,5.34,5.34,0,0,1,3.07-.82,6.31,6.31,0,0,1,1.23.11,6.23,6.23,0,0,1,1.56-1.8A2.79,2.79,0,0,1,620.29,77.51Zm-6.24,9.34a2.43,2.43,0,0,0,2-.83,4.64,4.64,0,0,0,1-2,10.18,10.18,0,0,0,.27-2.31c0-1-.47-1.56-1.42-1.56a2.23,2.23,0,0,0-1.93,1,6.17,6.17,0,0,0-1,2.23,8.83,8.83,0,0,0-.28,1.88,1.66,1.66,0,0,0,.36,1.2A1.5,1.5,0,0,0,614.05,86.85ZM611.38,92c-1.63.88-2.45,1.86-2.45,3a1.52,1.52,0,0,0,.63,1.3,2.81,2.81,0,0,0,1.66.45,6.32,6.32,0,0,0,2.22-.42,5.18,5.18,0,0,0,1.87-1.14,2.14,2.14,0,0,0,.73-1.57.38.38,0,0,0-.23-.38,5.65,5.65,0,0,0-.9-.3l-.31-.08Z"/><path id="path234645" class="cls-1" d="M639,79.73c.84,0,1.26.65,1.26,1.94a10.56,10.56,0,0,1-.68,3.46,24.13,24.13,0,0,1-1.77,3.81,26.32,26.32,0,0,1-2.28,3.39,13.93,13.93,0,0,1-4.73,4,5.1,5.1,0,0,1-2.09.6,1.37,1.37,0,0,1-.85-.26.83.83,0,0,1-.35-.73.93.93,0,0,1,.38-.78,1.47,1.47,0,0,1,.92-.3,2.12,2.12,0,0,1,1,.25,6.8,6.8,0,0,1,1,.69,13.1,13.1,0,0,0,3.6-2.87l-1.77-10.76a3.34,3.34,0,0,0-.31-1,.51.51,0,0,0-.47-.29c-.2,0-.41.16-.63.47a8,8,0,0,0-.78,1.73l-.31.89h-.46l.6-1.74c.56-1.64,1.49-2.45,2.77-2.45a1.58,1.58,0,0,1,.84.2,1.37,1.37,0,0,1,.55.68,5.25,5.25,0,0,1,.33,1.32L636,91a22.58,22.58,0,0,0,2.26-3.82,16.84,16.84,0,0,0,1.36-4,5.13,5.13,0,0,1-1.29-1,1.76,1.76,0,0,1-.54-1.26,1.17,1.17,0,0,1,.34-.89A1.22,1.22,0,0,1,639,79.73Z"/></g><g id="title"><path id="path234648" class="cls-2" d="M203.1,32.1a23.25,23.25,0,0,1,8,1.85,10.32,10.32,0,0,1,4.5,3.54A7.94,7.94,0,0,1,217,42a9.43,9.43,0,0,1-1.84,5.87A11.05,11.05,0,0,1,210,51.51a24.42,24.42,0,0,1-8.2,1.22l-2.68,0q-3.69-.1-7.2-.11-5.72,0-8.53.16V51.62a8.23,8.23,0,0,0,2.68-.43,2,2,0,0,0,1.14-1.3,10.43,10.43,0,0,0,.32-3V19.35a10.48,10.48,0,0,0-.32-3A2,2,0,0,0,186,15a8.44,8.44,0,0,0-2.68-.43V13.48c1.88.11,4.68.16,8.42.16.68,0,2.76,0,6.23-.08l2.49,0A22.22,22.22,0,0,1,208,14.64a9.91,9.91,0,0,1,4.63,3.06,7.12,7.12,0,0,1,1.54,4.55,7.65,7.65,0,0,1-1.19,4,10.61,10.61,0,0,1-3.71,3.52A18,18,0,0,1,203.1,32Zm-3.36-17.51a4.65,4.65,0,0,0-2.19.41,2.06,2.06,0,0,0-1,1.38,12.18,12.18,0,0,0-.27,3V31.89h2.38c2.42,0,4.1-.82,5.06-2.47a13,13,0,0,0,1.44-6.57c0-2.78-.44-4.85-1.3-6.2A4.51,4.51,0,0,0,199.74,14.59Zm.38,36.87q4,0,5.85-2.46c1.25-1.65,1.87-4.06,1.87-7.26q0-4.35-2.22-6.63c-1.46-1.52-3.79-2.27-7-2.27h-2.32v14a11.09,11.09,0,0,0,.29,3,2,2,0,0,0,1.09,1.3A6.36,6.36,0,0,0,200.12,51.46Z"/><path id="path234650" class="cls-2" d="M241,14.59a8.54,8.54,0,0,0-2.7.43,2.08,2.08,0,0,0-1.17,1.3,11.1,11.1,0,0,0-.29,3V46.86a11.05,11.05,0,0,0,.29,3,2.08,2.08,0,0,0,1.17,1.3,8.54,8.54,0,0,0,2.7.43v1.11q-3-.16-8.39-.16-5.93,0-8.74.16V51.62a8.28,8.28,0,0,0,2.68-.43,2,2,0,0,0,1.14-1.3,10.43,10.43,0,0,0,.32-3V19.35a10.48,10.48,0,0,0-.32-3,2,2,0,0,0-1.14-1.3,8.44,8.44,0,0,0-2.68-.43V13.48q2.82.16,8.74.16,5.38,0,8.39-.16Z"/><path id="path234652" class="cls-2" d="M267.92,32.1A23.36,23.36,0,0,1,276,34a10.29,10.29,0,0,1,4.49,3.54,7.88,7.88,0,0,1,1.41,4.5A9.49,9.49,0,0,1,280,47.86a11.05,11.05,0,0,1-5.25,3.65,24.48,24.48,0,0,1-8.21,1.22l-2.68,0q-3.67-.1-7.2-.11-5.72,0-8.53.16V51.62a8.23,8.23,0,0,0,2.68-.43,2,2,0,0,0,1.14-1.3,10,10,0,0,0,.33-3V19.35a10.06,10.06,0,0,0-.33-3,2,2,0,0,0-1.14-1.3,8.39,8.39,0,0,0-2.68-.43V13.48q2.82.16,8.42.16c.69,0,2.77,0,6.23-.08l2.49,0a22.24,22.24,0,0,1,7.53,1.11,10,10,0,0,1,4.63,3.06A7.17,7.17,0,0,1,279,22.25a7.74,7.74,0,0,1-1.19,4,10.7,10.7,0,0,1-3.71,3.52,18.12,18.12,0,0,1-6.17,2.2Zm-3.36-17.51a4.63,4.63,0,0,0-2.19.41,2.07,2.07,0,0,0-1,1.38,12.18,12.18,0,0,0-.27,3V31.89h2.38q3.63,0,5.07-2.47A13.07,13.07,0,0,0,270,22.85q0-4.17-1.3-6.2A4.5,4.5,0,0,0,264.56,14.59Zm.38,36.87q4,0,5.85-2.46c1.24-1.65,1.86-4.06,1.86-7.26q0-4.35-2.22-6.63c-1.46-1.52-3.79-2.27-7-2.27h-2.33v14a10.6,10.6,0,0,0,.3,3,2,2,0,0,0,1.08,1.3A6.45,6.45,0,0,0,264.94,51.46Z"/><path id="path234654" class="cls-2" d="M306.14,14.59a10,10,0,0,0-2.92.43,2.1,2.1,0,0,0-1.24,1.3,10.06,10.06,0,0,0-.33,3V47.51a9,9,0,0,0,.27,2.6,1.64,1.64,0,0,0,1,1.08,6.7,6.7,0,0,0,2.24.27h2.71a7.54,7.54,0,0,0,4.6-1.54A11.91,11.91,0,0,0,316,45.59a20.9,20.9,0,0,0,2-6.5h1.27c-.11,1.26-.16,2.89-.16,4.87,0,3.16.12,6.08.38,8.77q-3.76-.16-12.7-.16-12,0-18.06.16V51.62a8.23,8.23,0,0,0,2.68-.43,2,2,0,0,0,1.14-1.3,10,10,0,0,0,.33-3V19.35a10.06,10.06,0,0,0-.33-3,2,2,0,0,0-1.14-1.3,8.44,8.44,0,0,0-2.68-.43V13.48c1.88.11,4.79.16,8.75.16,3.75,0,6.66-.05,8.71-.16Z"/><path id="path234656" class="cls-2" d="M356.34,44.31c0,3,.12,5.82.38,8.42q-3.77-.16-12.7-.16-12,0-18.06.16V51.62a8.23,8.23,0,0,0,2.68-.43,2,2,0,0,0,1.14-1.3,10,10,0,0,0,.33-3V19.35a10.06,10.06,0,0,0-.33-3,2,2,0,0,0-1.14-1.3,8.44,8.44,0,0,0-2.68-.43V13.48q6,.16,18.06.16,8.18,0,11.59-.16c-.26,3.05-.38,5.78-.38,8.2a33.38,33.38,0,0,0,.16,3.77h-1.27a20.42,20.42,0,0,0-1.71-6.34,7.4,7.4,0,0,0-3-3.36,9,9,0,0,0-4.41-1h-2.27a8.28,8.28,0,0,0-2.49.27,1.69,1.69,0,0,0-1.06,1.09,8.92,8.92,0,0,0-.27,2.59V32.43h1.79a5.12,5.12,0,0,0,4.49-2.17,13.44,13.44,0,0,0,2.11-5.14h1.27c-.12,1.82-.19,3.56-.19,5.23l0,2.65q0,2.8.33,7.88h-1.28q-1.08-7.35-6.76-7.34h-1.79v14a9,9,0,0,0,.27,2.6,1.7,1.7,0,0,0,1.06,1.08,8.28,8.28,0,0,0,2.49.27h2.73a7.94,7.94,0,0,0,7.74-4.85,23.23,23.23,0,0,0,2-7h1.27c-.11,1.19-.16,2.74-.16,4.65Z"/><path id="path234658" class="cls-2" d="M418.17,14.59a8.56,8.56,0,0,0-2.71.43,2,2,0,0,0-1.16,1.3,11,11,0,0,0-.3,3V46.86a11,11,0,0,0,.3,3,2,2,0,0,0,1.16,1.3,8.78,8.78,0,0,0,2.71.43v1.11c-1.81-.11-4.61-.16-8.42-.16s-6.66,0-8.72.16V51.62a8.56,8.56,0,0,0,2.71-.43,2,2,0,0,0,1.14-1.3,10.43,10.43,0,0,0,.32-3V33.54H390.5V46.86a11,11,0,0,0,.3,3,2.08,2.08,0,0,0,1.17,1.3,8.48,8.48,0,0,0,2.7.43v1.11q-3-.16-8.39-.16c-3.95,0-6.87,0-8.74.16V51.62a8.28,8.28,0,0,0,2.68-.43,2,2,0,0,0,1.13-1.3,10,10,0,0,0,.33-3V19.35a10.06,10.06,0,0,0-.33-3,2,2,0,0,0-1.13-1.3,8.5,8.5,0,0,0-2.68-.43V13.48c1.87.11,4.79.16,8.74.16q5.39,0,8.39-.16v1.11A8.48,8.48,0,0,0,392,15a2.08,2.08,0,0,0-1.17,1.3,11,11,0,0,0-.3,3V32.43h14.7V19.35a10.48,10.48,0,0,0-.32-3,2,2,0,0,0-1.14-1.3,8.56,8.56,0,0,0-2.71-.43V13.48q3.09.16,8.72.16c3.81,0,6.61-.05,8.42-.16Z"/><path id="path234660" class="cls-2" d="M442.46,14.59a8.56,8.56,0,0,0-2.71.43,2.08,2.08,0,0,0-1.17,1.3,11.52,11.52,0,0,0-.29,3V46.86a11.47,11.47,0,0,0,.29,3,2.08,2.08,0,0,0,1.17,1.3,8.56,8.56,0,0,0,2.71.43v1.11q-3-.16-8.4-.16-5.93,0-8.74.16V51.62a8.23,8.23,0,0,0,2.68-.43,2,2,0,0,0,1.14-1.3,10.43,10.43,0,0,0,.32-3V19.35a10.48,10.48,0,0,0-.32-3A2,2,0,0,0,428,15a8.44,8.44,0,0,0-2.68-.43V13.48q2.82.16,8.74.16,5.38,0,8.4-.16Z"/><path id="path234662" class="cls-2" d="M463.47,12.78a15.28,15.28,0,0,1,4.63.57,16.06,16.06,0,0,1,3.46,1.57,4.49,4.49,0,0,0,1.87.78.85.85,0,0,0,.78-.57,6.86,6.86,0,0,0,.46-1.87H476q-.3,3.45-.3,12.65h-1.27a17.33,17.33,0,0,0-1.33-5.72,11,11,0,0,0-3.22-4.38A7.39,7.39,0,0,0,465,14.1a6.85,6.85,0,0,0-3.17.71,5.19,5.19,0,0,0-2.17,2,5.79,5.79,0,0,0-.76,3,6.37,6.37,0,0,0,.87,3.38,10.17,10.17,0,0,0,2.38,2.66q1.54,1.21,4.74,3.35c.61.38,1.15.74,1.6,1.06A55.38,55.38,0,0,1,473.56,34a13.16,13.16,0,0,1,3.06,3.77,10,10,0,0,1,1.19,5,9.56,9.56,0,0,1-1.84,6,11.13,11.13,0,0,1-5,3.66,19.47,19.47,0,0,1-7,1.19A19.22,19.22,0,0,1,459,53a17.29,17.29,0,0,1-3.79-1.49,4.16,4.16,0,0,0-1.9-.78.84.84,0,0,0-.78.59,6.56,6.56,0,0,0-.44,1.84h-1.27q.21-3.47.22-15h1.27A21.53,21.53,0,0,0,455,48.21a8,8,0,0,0,7.34,3.85,8.41,8.41,0,0,0,3.52-.71,5.63,5.63,0,0,0,2.46-2.08,6.3,6.3,0,0,0,.89-3.41,7.43,7.43,0,0,0-1-3.9,11.31,11.31,0,0,0-2.73-3.14,46.07,46.07,0,0,0-4.55-3.28,58.54,58.54,0,0,1-5.33-3.71A14.42,14.42,0,0,1,452.31,28,10.21,10.21,0,0,1,451,22.9a9.1,9.1,0,0,1,1.71-5.63,10.09,10.09,0,0,1,4.52-3.38A16.72,16.72,0,0,1,463.47,12.78Z"/><path id="path234664" class="cls-2" d="M519.13,13.48q-.4,5.15-.41,9.42c0,1.79.06,3.2.16,4.22h-1.27a29.65,29.65,0,0,0-2.25-7.33,9,9,0,0,0-3.19-3.87,8.35,8.35,0,0,0-4.52-1.17h-1.22V46.4a9,9,0,0,0,.46,3.38,2.56,2.56,0,0,0,1.65,1.44,14.76,14.76,0,0,0,3.82.4v1.11q-4.71-.16-10.56-.16c-3.82,0-7.2,0-10.12.16V51.62a14.43,14.43,0,0,0,3.79-.4,2.57,2.57,0,0,0,1.68-1.44,9.21,9.21,0,0,0,.46-3.38V14.75h-1.22a8.41,8.41,0,0,0-4.55,1.17,9.15,9.15,0,0,0-3.17,3.87,30.89,30.89,0,0,0-2.27,7.33h-1.27a42,42,0,0,0,.16-4.22q0-4.14-.38-9.42,5,.16,17.14.16T519.13,13.48Z"/><path id="path234666" class="cls-2" d="M545.93,12.7a21.3,21.3,0,0,1,10.29,2.38A16.64,16.64,0,0,1,563.07,22a22.42,22.42,0,0,1,2.43,10.77A22.72,22.72,0,0,1,563,43.61a18,18,0,0,1-7,7.31,19.76,19.76,0,0,1-10.15,2.6,21.59,21.59,0,0,1-10.32-2.38,16.65,16.65,0,0,1-6.85-6.91,22.83,22.83,0,0,1-2.41-10.8,22.83,22.83,0,0,1,2.5-10.83,18,18,0,0,1,7-7.31A19.89,19.89,0,0,1,545.93,12.7Zm-.24,1a7.08,7.08,0,0,0-5.36,2.49,16.62,16.62,0,0,0-3.58,6.9,37.38,37.38,0,0,0-1.24,10.12,33.44,33.44,0,0,0,1.41,10.16,16.3,16.3,0,0,0,3.81,6.76,7.54,7.54,0,0,0,5.36,2.39,7.13,7.13,0,0,0,5.36-2.47,16.41,16.41,0,0,0,3.58-6.9A37.21,37.21,0,0,0,556.3,33a33.14,33.14,0,0,0-1.41-10.15,16.26,16.26,0,0,0-3.84-6.77A7.47,7.47,0,0,0,545.69,13.7Z"/><path id="path234668" class="cls-2" d="M610.28,50.3a9.37,9.37,0,0,1-3.22,2.46,10.27,10.27,0,0,1-4.14.76,8.39,8.39,0,0,1-5-1.36,7,7,0,0,1-2.46-4.65l-1-5.52a30.85,30.85,0,0,0-1-4.34,6.09,6.09,0,0,0-1.54-2.57,3.54,3.54,0,0,0-2.63-1h-3.6V46.86a11,11,0,0,0,.3,3,2.08,2.08,0,0,0,1.17,1.3,8.54,8.54,0,0,0,2.7.43v1.11q-3-.16-8.39-.16c-4,0-6.87,0-8.74.16V51.62a8.28,8.28,0,0,0,2.68-.43,2,2,0,0,0,1.13-1.3,10,10,0,0,0,.33-3V19.35a10.06,10.06,0,0,0-.33-3,2,2,0,0,0-1.13-1.3,8.5,8.5,0,0,0-2.68-.43V13.48q2.81.16,8.42.16c.68,0,2.76,0,6.22-.08l2.49,0q7.63,0,11.48,2.52a8,8,0,0,1,3.87,7.12A10.07,10.07,0,0,1,604,27.88a10.14,10.14,0,0,1-3.95,3.87,18.5,18.5,0,0,1-7.34,2.14h0A20.59,20.59,0,0,1,598.29,35a7.87,7.87,0,0,1,3.38,2.35,8.7,8.7,0,0,1,1.74,3.82l1.24,5.71a9.83,9.83,0,0,0,1,3.12,1.82,1.82,0,0,0,1.6.86,2.15,2.15,0,0,0,1.16-.3,4.2,4.2,0,0,0,1.08-1ZM589.11,14.59a4.65,4.65,0,0,0-2.19.41,2.1,2.1,0,0,0-1,1.38,12.18,12.18,0,0,0-.27,3V33h2.39a8.49,8.49,0,0,0,4.84-1.19,6,6,0,0,0,2.41-3.2,15.13,15.13,0,0,0,.68-4.82q0-4.54-1.63-6.87T589.11,14.59Z"/><path id="path234670" class="cls-2" d="M640.5,13.62c1.71,0,3.12-.06,4.22-.17v1.11c-1.72.67-3.48,2.8-5.31,6.39l-6.55,13V46.86a11,11,0,0,0,.3,3,2.07,2.07,0,0,0,1.16,1.3,8.5,8.5,0,0,0,2.68.43v1.11c-2-.11-4.81-.16-8.52-.16q-5.88,0-8.61.16V51.62a8.61,8.61,0,0,0,2.71-.43,2,2,0,0,0,1.13-1.3,10,10,0,0,0,.33-3V37.44L613.37,17.7q-1.71-3.07-3.22-3.08V13.45q3.26.27,6.55.27,5.14,0,10.42-.27v1.17A10.46,10.46,0,0,0,624,15a1.31,1.31,0,0,0-1.11,1.3,2.76,2.76,0,0,0,.35,1.22l8.45,16.18,4.3-8.6c1.46-2.91,2.19-5.18,2.19-6.83q0-3.54-4.63-3.68V13.45Q637.39,13.62,640.5,13.62Z"/></g><path class="cls-3" d="M29.44,61.16c0-5.21.07-10.42,0-15.62,0-1.24.36-1.57,1.54-1.53,2.27.08,4.53,0,7,0a17.18,17.18,0,0,1-8.43-14.91,12.2,12.2,0,0,1,9.86-11.85c9.18-1.88,17.92-4.85,25.53-10.52a37.89,37.89,0,0,0,6.53-6,8.47,8.47,0,0,1,.8-.76,6.93,6.93,0,0,1,1.13,3.49,1.24,1.24,0,0,1,.25.76c0,.2,0-.07,0,.13,0,0,0-.1,0-.15a1.22,1.22,0,0,1,.25-.74A10.61,10.61,0,0,1,74.82.2c.34-.18.47,0,.6.14,6.56,7.52,14.94,12,24.35,14.92,3.08.94,6.24,1.49,9.33,2.38A12.39,12.39,0,0,1,117.7,31a19.51,19.51,0,0,1-5.2,10.7,24.77,24.77,0,0,1-3,2.3c2.33,0,4.66.06,7,0,1.11,0,1.34.34,1.33,1.38,0,5.26,0,10.53,0,15.79a13,13,0,0,1,0,7.41l0,12.24a7.53,7.53,0,0,1-5.6,0,4.16,4.16,0,0,1-.4-2.52q0-13,0-25.92c0-2.36,0-2.38-2.39-2.39H38c-2.44,0-2.45,0-2.45,2.5q0,12.87,0,25.76a4.47,4.47,0,0,1-.37,2.54,7.28,7.28,0,0,1-5.63,0l0-12.24A13,13,0,0,1,29.44,61.16Z"/><path class="cls-4" d="M112.27,80.77l5.52,0c9.29,0,18.58,0,27.87,0,1.31,0,1.7.39,1.6,1.65a28.47,28.47,0,0,0,0,4.13c.1,1.26-.29,1.65-1.6,1.64-9.29,0-18.58,0-27.87,0-1.76.91-3.65.33-5.48.45-1.27,0-2.55,0-3.82,0a7.74,7.74,0,0,1-1.07.05H40.05a8.25,8.25,0,0,1-1.22,0c-1.28,0-2.56.05-3.84,0-1.83-.12-3.73.47-5.5-.45-9.29,0-18.58,0-27.87,0-1.3,0-1.69-.38-1.6-1.64a28.47,28.47,0,0,0,0-4.13c-.09-1.26.3-1.65,1.6-1.65,9.29.06,18.58,0,27.87,0l5.52,0c1.2-.74,2.52-.33,3.79-.41a7.6,7.6,0,0,1,1.07,0h67.38a8.3,8.3,0,0,1,1.22,0C109.74,80.43,111.07,80,112.27,80.77Z"/><path class="cls-3" d="M29.49,88.17l5.52,0a2.73,2.73,0,0,1,.48,2c0,1.74,0,3.47,0,5.21,0,1,.42,1.42,1.38,1.4l1.38,0H109c2.76,0,2.76,0,2.77-2.8,0-1.33,0-2.66,0-4a2.49,2.49,0,0,1,.47-1.88l5.52,0c0,4.45,0,8.89,0,13.33,0,1-.13,1.42-1.29,1.42q-42.89,0-85.78,0c-1.16,0-1.3-.43-1.29-1.42C29.51,97.06,29.49,92.62,29.49,88.17Z"/><path class="cls-4" d="M29.44,61.16v7.41c-9.25,0-18.49,0-27.74,0-1.38,0-1.8-.39-1.68-1.72a24,24,0,0,0,0-4c-.12-1.34.3-1.74,1.68-1.73,8.63.07,17.27,0,25.9,0Z"/><path class="cls-4" d="M117.84,68.57V61.16c9.25,0,18.5.05,27.74,0,1.39,0,1.8.39,1.69,1.73a22,22,0,0,0,0,4c.11,1.33-.3,1.73-1.69,1.72-8.63-.07-17.26,0-25.9,0Z"/><path class="cls-5" d="M73.9,3.49l0,1a.39.39,0,0,1-.6,0c0-.32,0-.64,0-1Z"/><path class="cls-6" d="M73.89,8.18a16.13,16.13,0,0,0,12,12.25c.19.14.51.2.3.55-3.57,1.19-7,.63-10.54-.88.41,4.15,2.8,6.59,6.13,8.32a13.92,13.92,0,0,0,10.74.9,11,11,0,0,1-7.94,4.51c2.32,4.35,10.27,5.55,15.74,2.38-.42,3.91,1.52,6.27,5.41,7.74H41.44c3.91-1.34,5.92-3.69,5.52-7.8,3.45,2.32,7.08,2.33,10.79,1.32a8.93,8.93,0,0,0,5.16-3.62,11,11,0,0,1-8-4.38c9.57,1.15,16.39-2.67,16.69-9.38-3.24,1.35-6.5,2.17-9.91,1-.2-.37.09-.48.34-.62a17.59,17.59,0,0,0,9.34-7.23,13,13,0,0,0,2.06-5C73.56,8,73.73,8,73.89,8.18Z"/><path class="cls-7" d="M112.27,80.77h-3.66a3.33,3.33,0,0,1-.5-2.49c0-7.4,0-14.81,0-22.22,0-2.3,0-2.34-2.28-2.35H41.46c-2.23,0-2.28,0-2.28,2.35,0,7.41,0,14.82,0,22.22a3.29,3.29,0,0,1-.5,2.49H35c0-9.91,0-19.83,0-29.74,0-1.26.41-1.52,1.58-1.52q37.1,0,74.19,0c1.16,0,1.58.26,1.57,1.52C112.25,60.94,112.27,70.86,112.27,80.77Z"/><path class="cls-8" d="M62,20.45l-.34.62c-.42-.07-.92,0-1.33-.62Z"/><path class="cls-9" d="M73.34,4.45h.6c-.06.36.19.81-.3,1.07C73.15,5.26,73.41,4.81,73.34,4.45Z"/><path class="cls-10" d="M73.36,7.25c0-.29-.1-.74.21-.76.54,0,.31.46.35.76A.4.4,0,0,1,73.36,7.25Z"/><path class="cls-11" d="M73.36,7.25h.56l0,.93h-.5Z"/><path class="cls-12" d="M86.18,21l-.3-.55c.36,0,.86-.25,1,.21C87,20.89,86.49,21,86.18,21Z"/><path class="cls-3" d="M38.67,80.77c0-8.64,0-17.27,0-25.91,0-1.39.42-1.68,1.73-1.67q33.25.06,66.52,0c1.31,0,1.75.28,1.74,1.67-.07,8.64,0,17.27,0,25.91-.66,0-1.32,0-2,0h-66C40,80.81,39.33,80.78,38.67,80.77Z"/><path class="cls-3" d="M38.67,88.22c.66,0,1.33,0,2,0q33,0,66,0c.67,0,1.33,0,2,0,.87,1.59.49,3.27.31,4.92-.07.64-.63.88-1.22,1a12,12,0,0,1-2,.09H41.57c-3.26,0-3.42-.16-3.38-3.49C38.2,89.86,38,89,38.67,88.22Z"/><path class="cls-7" d="M38.67,88.22c0,1.33.1,2.66,0,4s.42,1.66,1.57,1.5a1.61,1.61,0,0,1,.31,0q33.11,0,66.2,0c1.44,0,2-.31,1.89-1.83a34.74,34.74,0,0,1,0-3.68h3.66c0,2.56-.06,5.11,0,7.66,0,1.28-.42,1.52-1.58,1.52-11.19,0-22.38,0-33.56,0q-20.23,0-40.46,0c-1.31,0-1.81-.26-1.74-1.67.12-2.5,0-5,0-7.51Z"/></g></g></svg>